<svg width="7500" height="2500" viewBox="0 0 7500 2500" fill="none" xmlns="http://www.w3.org/2000/svg">
<rect width="7500" height="2500" fill="#FAFAFA"/>
<path d="M3334 1329.73L3251.02 1473.6L3250.53 1473.29C3233.67 1496.21 3206.79 1510 3177.94 1510H2918L3002.77 1363.06L3022 1329.73H3334ZM3022 1329.73H2814L2912 1159.87L2984 1035.07C3000.09 1007.18 3029.84 990 3062.03 990C3065.19 990 3068.29 990.157 3071.33 990.46L3071.4 990H3218L3022 1329.73Z" fill="#111111"/>
<path d="M3635.38 1386V1171.34C3635.38 1163.41 3633.07 1157.26 3628.46 1152.91C3624.11 1148.3 3617.97 1146 3610.03 1146H3563.18V1113.36H3614.26C3633.97 1113.36 3648.82 1118.48 3658.8 1128.72C3669.04 1138.7 3674.16 1153.55 3674.16 1173.26V1386H3635.38ZM3555.5 1386V1353.36H3742.9V1386H3555.5ZM3865.63 1386V1171.34C3865.63 1163.41 3863.32 1157.26 3858.71 1152.91C3854.36 1148.3 3848.22 1146 3840.28 1146H3793.43V1113.36H3844.51C3864.22 1113.36 3879.07 1118.48 3889.05 1128.72C3899.29 1138.7 3904.41 1153.55 3904.41 1173.26V1386H3865.63ZM3785.75 1386V1353.36H3973.15V1386H3785.75ZM4082.05 1390.61C4069.25 1390.61 4057.73 1388.3 4047.49 1383.7C4037.25 1379.09 4029.06 1372.56 4022.92 1364.11C4017.03 1355.66 4014.08 1345.81 4014.08 1334.54C4014.08 1317.14 4019.33 1303.57 4029.83 1293.84C4040.58 1284.11 4056.71 1277.2 4078.21 1273.1L4144.26 1259.28C4144.26 1243.41 4140.8 1231.5 4133.89 1223.57C4126.98 1215.63 4116.61 1211.66 4102.79 1211.66C4089.99 1211.66 4080 1214.61 4072.84 1220.5C4065.67 1226.38 4060.8 1234.58 4058.24 1245.07L4017.54 1242.38C4021.38 1222.93 4030.72 1207.18 4045.57 1195.15C4060.42 1183.12 4079.49 1177.1 4102.79 1177.1C4128.9 1177.1 4148.74 1184.53 4162.31 1199.38C4176.13 1214.22 4183.04 1234.7 4183.04 1260.82V1341.46C4183.04 1346.06 4184.07 1349.39 4186.12 1351.44C4188.16 1353.23 4191.11 1354.13 4194.95 1354.13H4206.47V1386C4204.93 1386.26 4202.37 1386.51 4198.79 1386.77C4195.46 1387.02 4192.13 1387.15 4188.8 1387.15C4179.59 1387.15 4171.78 1385.62 4165.38 1382.54C4158.98 1379.47 4154.12 1374.74 4150.79 1368.34C4147.72 1361.68 4145.92 1353.36 4145.41 1343.38H4151.56C4150.02 1352.34 4146.05 1360.4 4139.65 1367.57C4133.25 1374.74 4125.06 1380.37 4115.08 1384.46C4105.09 1388.56 4094.08 1390.61 4082.05 1390.61ZM4087.81 1358.74C4100.1 1358.74 4110.47 1356.56 4118.92 1352.21C4127.36 1347.86 4133.64 1341.71 4137.73 1333.78C4142.08 1325.84 4144.26 1316.5 4144.26 1305.74V1290L4087.43 1301.52C4075.14 1303.82 4066.56 1307.41 4061.7 1312.27C4056.84 1317.14 4054.4 1323.54 4054.4 1331.47C4054.4 1339.92 4057.35 1346.58 4063.24 1351.44C4069.12 1356.3 4077.32 1358.74 4087.81 1358.74ZM4238.57 1386V1181.71H4272.37L4273.9 1227.79L4269.68 1226.64C4272.24 1211.02 4277.23 1198.86 4284.65 1190.16C4292.33 1181.46 4301.93 1177.1 4313.45 1177.1C4325.74 1177.1 4334.96 1181.46 4341.1 1190.16C4347.5 1198.86 4351.47 1211.79 4353.01 1228.94H4348.78C4351.09 1212.56 4356.33 1199.89 4364.53 1190.93C4372.72 1181.71 4382.96 1177.1 4395.25 1177.1C4411.37 1177.1 4423.02 1182.74 4430.19 1194C4437.61 1205.01 4441.33 1223.06 4441.33 1248.14V1386H4403.69V1254.67C4403.69 1238.29 4401.9 1226.9 4398.32 1220.5C4394.99 1214.1 4389.74 1210.9 4382.57 1210.9C4377.97 1210.9 4373.74 1212.43 4369.9 1215.5C4366.32 1218.58 4363.5 1223.44 4361.45 1230.1C4359.41 1236.5 4358.38 1244.94 4358.38 1255.44V1386H4321.52V1254.67C4321.52 1238.8 4319.85 1227.54 4316.53 1220.88C4313.45 1214.22 4308.21 1210.9 4300.78 1210.9C4295.92 1210.9 4291.69 1212.43 4288.11 1215.5C4284.53 1218.58 4281.58 1223.44 4279.28 1230.1C4277.23 1236.5 4276.21 1244.94 4276.21 1255.44V1386H4238.57ZM4542.55 1390.61C4529.75 1390.61 4518.23 1388.3 4507.99 1383.7C4497.75 1379.09 4489.56 1372.56 4483.42 1364.11C4477.53 1355.66 4474.58 1345.81 4474.58 1334.54C4474.58 1317.14 4479.83 1303.57 4490.33 1293.84C4501.08 1284.11 4517.21 1277.2 4538.71 1273.1L4604.76 1259.28C4604.76 1243.41 4601.3 1231.5 4594.39 1223.57C4587.48 1215.63 4577.11 1211.66 4563.29 1211.66C4550.49 1211.66 4540.5 1214.61 4533.34 1220.5C4526.17 1226.38 4521.3 1234.58 4518.74 1245.07L4478.04 1242.38C4481.88 1222.93 4491.22 1207.18 4506.07 1195.15C4520.92 1183.12 4539.99 1177.1 4563.29 1177.1C4589.4 1177.1 4609.24 1184.53 4622.81 1199.38C4636.63 1214.22 4643.54 1234.7 4643.54 1260.82V1341.46C4643.54 1346.06 4644.57 1349.39 4646.62 1351.44C4648.66 1353.23 4651.61 1354.13 4655.45 1354.13H4666.97V1386C4665.43 1386.26 4662.87 1386.51 4659.29 1386.77C4655.96 1387.02 4652.63 1387.15 4649.3 1387.15C4640.09 1387.15 4632.28 1385.62 4625.88 1382.54C4619.48 1379.47 4614.62 1374.74 4611.29 1368.34C4608.22 1361.68 4606.42 1353.36 4605.91 1343.38H4612.06C4610.52 1352.34 4606.55 1360.4 4600.15 1367.57C4593.75 1374.74 4585.56 1380.37 4575.58 1384.46C4565.59 1388.56 4554.58 1390.61 4542.55 1390.61ZM4548.31 1358.74C4560.6 1358.74 4570.97 1356.56 4579.42 1352.21C4587.86 1347.86 4594.14 1341.71 4598.23 1333.78C4602.58 1325.84 4604.76 1316.5 4604.76 1305.74V1290L4547.93 1301.52C4535.64 1303.82 4527.06 1307.41 4522.2 1312.27C4517.34 1317.14 4514.9 1323.54 4514.9 1331.47C4514.9 1339.92 4517.85 1346.58 4523.74 1351.44C4529.62 1356.3 4537.82 1358.74 4548.31 1358.74Z" fill="#111111"/>
</svg>
