<svg width="7500" height="2500" viewBox="0 0 7500 2500" fill="none" xmlns="http://www.w3.org/2000/svg">
<rect width="7500" height="2500" fill="#111111"/>
<path d="M3374 1342L3278.25 1508L3278.14 1507.93C3261.25 1534.07 3232.19 1550 3200.86 1550H2894L2974.32 1410.77L3014 1342H3374ZM3014 1342H2774L2887.08 1146L2973.6 996.025C2990.03 967.546 3020.41 950 3053.29 950H3240.15L3014 1342Z" fill="#FAFAFA"/>
<path d="M3678.83 1386V1167.89C3678.83 1159.7 3676.53 1153.3 3671.92 1148.69C3667.31 1144.08 3660.91 1141.78 3652.72 1141.78H3604.72V1113.36H3654.26C3672.94 1113.36 3687.02 1118.22 3696.5 1127.95C3706.22 1137.42 3711.09 1151.5 3711.09 1170.19V1386H3678.83ZM3597.04 1386V1357.58H3781.36V1386H3597.04ZM3909.08 1386V1167.89C3909.08 1159.7 3906.78 1153.3 3902.17 1148.69C3897.56 1144.08 3891.16 1141.78 3882.97 1141.78H3834.97V1113.36H3884.51C3903.19 1113.36 3917.27 1118.22 3926.75 1127.95C3936.47 1137.42 3941.34 1151.5 3941.34 1170.19V1386H3909.08ZM3827.29 1386V1357.58H4011.61V1386H3827.29ZM4122.82 1390.61C4110.02 1390.61 4098.5 1388.3 4088.26 1383.7C4078.02 1379.09 4069.96 1372.69 4064.07 1364.5C4058.18 1356.05 4055.24 1346.32 4055.24 1335.31C4055.24 1317.9 4060.36 1304.46 4070.6 1294.99C4081.09 1285.26 4097.48 1278.22 4119.75 1273.87L4188.1 1260.05C4188.1 1242.64 4184.13 1229.71 4176.2 1221.26C4168.52 1212.82 4157.38 1208.59 4142.79 1208.59C4128.71 1208.59 4117.7 1211.79 4109.76 1218.19C4101.83 1224.34 4096.32 1233.3 4093.25 1245.07L4059.08 1242.38C4062.92 1223.18 4072 1207.7 4086.34 1195.92C4100.93 1183.89 4119.75 1177.87 4142.79 1177.87C4167.36 1177.87 4186.44 1185.3 4200 1200.14C4213.57 1214.74 4220.36 1234.96 4220.36 1260.82V1345.3C4220.36 1349.9 4221.38 1353.1 4223.43 1354.9C4225.48 1356.69 4228.55 1357.58 4232.64 1357.58H4245.7V1386C4244.16 1386.26 4241.73 1386.38 4238.4 1386.38C4235.08 1386.64 4231.88 1386.77 4228.8 1386.77C4220.1 1386.77 4212.68 1385.36 4206.53 1382.54C4200.64 1379.73 4196.16 1375.25 4193.09 1369.1C4190.02 1362.7 4188.36 1354.51 4188.1 1344.53H4194.24C4192.45 1353.23 4188.1 1361.17 4181.19 1368.34C4174.53 1375.25 4166.08 1380.75 4155.84 1384.85C4145.6 1388.69 4134.6 1390.61 4122.82 1390.61ZM4125.89 1362.19C4139.72 1362.19 4151.24 1359.89 4160.45 1355.28C4169.67 1350.42 4176.58 1343.76 4181.19 1335.31C4185.8 1326.61 4188.1 1316.62 4188.1 1305.36V1287.7L4125.89 1299.98C4112.07 1302.54 4102.47 1306.51 4097.09 1311.89C4091.72 1317.01 4089.03 1323.79 4089.03 1332.24C4089.03 1341.71 4092.23 1349.14 4098.63 1354.51C4105.28 1359.63 4114.37 1362.19 4125.89 1362.19ZM4280.11 1386V1182.48H4309.68L4310.83 1227.79L4306.99 1227.02C4309.29 1211.92 4314.16 1200.02 4321.58 1191.31C4329.26 1182.35 4338.99 1177.87 4350.77 1177.87C4362.8 1177.87 4372.01 1182.22 4378.41 1190.93C4385.07 1199.63 4389.17 1212.43 4390.7 1229.33H4386.86C4389.17 1213.46 4394.29 1200.91 4402.22 1191.7C4410.41 1182.48 4420.65 1177.87 4432.94 1177.87C4449.33 1177.87 4461.23 1183.5 4468.65 1194.77C4476.08 1206.03 4479.79 1224.72 4479.79 1250.83V1386H4447.53V1255.44C4447.53 1237.26 4445.61 1224.59 4441.77 1217.42C4437.93 1210 4431.92 1206.29 4423.73 1206.29C4418.35 1206.29 4413.61 1208.08 4409.52 1211.66C4405.42 1214.99 4402.09 1220.37 4399.53 1227.79C4397.23 1235.22 4396.08 1244.69 4396.08 1256.21V1386H4363.82V1255.44C4363.82 1238.03 4361.9 1225.49 4358.06 1217.81C4354.48 1210.13 4348.46 1206.29 4340.01 1206.29C4334.64 1206.29 4329.9 1208.08 4325.81 1211.66C4321.71 1214.99 4318.38 1220.37 4315.82 1227.79C4313.52 1235.22 4312.37 1244.69 4312.37 1256.21V1386H4280.11ZM4583.32 1390.61C4570.52 1390.61 4559 1388.3 4548.76 1383.7C4538.52 1379.09 4530.46 1372.69 4524.57 1364.5C4518.68 1356.05 4515.74 1346.32 4515.74 1335.31C4515.74 1317.9 4520.86 1304.46 4531.1 1294.99C4541.59 1285.26 4557.98 1278.22 4580.25 1273.87L4648.6 1260.05C4648.6 1242.64 4644.63 1229.71 4636.7 1221.26C4629.02 1212.82 4617.88 1208.59 4603.29 1208.59C4589.21 1208.59 4578.2 1211.79 4570.26 1218.19C4562.33 1224.34 4556.82 1233.3 4553.75 1245.07L4519.58 1242.38C4523.42 1223.18 4532.5 1207.7 4546.84 1195.92C4561.43 1183.89 4580.25 1177.87 4603.29 1177.87C4627.86 1177.87 4646.94 1185.3 4660.5 1200.14C4674.07 1214.74 4680.86 1234.96 4680.86 1260.82V1345.3C4680.86 1349.9 4681.88 1353.1 4683.93 1354.9C4685.98 1356.69 4689.05 1357.58 4693.14 1357.58H4706.2V1386C4704.66 1386.26 4702.23 1386.38 4698.9 1386.38C4695.58 1386.64 4692.38 1386.77 4689.3 1386.77C4680.6 1386.77 4673.18 1385.36 4667.03 1382.54C4661.14 1379.73 4656.66 1375.25 4653.59 1369.1C4650.52 1362.7 4648.86 1354.51 4648.6 1344.53H4654.74C4652.95 1353.23 4648.6 1361.17 4641.69 1368.34C4635.03 1375.25 4626.58 1380.75 4616.34 1384.85C4606.1 1388.69 4595.1 1390.61 4583.32 1390.61ZM4586.39 1362.19C4600.22 1362.19 4611.74 1359.89 4620.95 1355.28C4630.17 1350.42 4637.08 1343.76 4641.69 1335.31C4646.3 1326.61 4648.6 1316.62 4648.6 1305.36V1287.7L4586.39 1299.98C4572.57 1302.54 4562.97 1306.51 4557.59 1311.89C4552.22 1317.01 4549.53 1323.79 4549.53 1332.24C4549.53 1341.71 4552.73 1349.14 4559.13 1354.51C4565.78 1359.63 4574.87 1362.19 4586.39 1362.19Z" fill="#FAFAFA"/>
</svg>
