<svg width="2873" height="600" viewBox="0 0 2873 600" fill="none" xmlns="http://www.w3.org/2000/svg">
<path d="M600 392L504.249 558L504.137 557.929C487.252 584.069 458.193 600 426.864 600H120L200.324 460.772L240 392H600ZM240 392H0L113.077 196L199.602 46.0254C216.032 17.5463 246.411 3.25756e-05 279.29 0H466.154L240 392Z" fill="#FAFAFA"/>
<path d="M904.832 436V217.888C904.832 209.696 902.528 203.296 897.92 198.688C893.312 194.08 886.912 191.776 878.72 191.776H830.72V163.36H880.256C898.944 163.36 913.024 168.224 922.496 177.952C932.224 187.424 937.088 201.504 937.088 220.192V436H904.832ZM823.04 436V407.584H1007.36V436H823.04ZM1135.08 436V217.888C1135.08 209.696 1132.78 203.296 1128.17 198.688C1123.56 194.08 1117.16 191.776 1108.97 191.776H1060.97V163.36H1110.51C1129.19 163.36 1143.27 168.224 1152.75 177.952C1162.47 187.424 1167.34 201.504 1167.34 220.192V436H1135.08ZM1053.29 436V407.584H1237.61V436H1053.29ZM1348.82 440.608C1336.02 440.608 1324.5 438.304 1314.26 433.696C1304.02 429.088 1295.96 422.688 1290.07 414.496C1284.18 406.048 1281.24 396.32 1281.24 385.312C1281.24 367.904 1286.36 354.464 1296.6 344.992C1307.09 335.264 1323.48 328.224 1345.75 323.872L1414.1 310.048C1414.1 292.64 1410.13 279.712 1402.2 271.264C1394.52 262.816 1383.38 258.592 1368.79 258.592C1354.71 258.592 1343.7 261.792 1335.76 268.192C1327.83 274.336 1322.32 283.296 1319.25 295.072L1285.08 292.384C1288.92 273.184 1298 257.696 1312.34 245.92C1326.93 233.888 1345.75 227.872 1368.79 227.872C1393.36 227.872 1412.44 235.296 1426 250.144C1439.57 264.736 1446.36 284.96 1446.36 310.816V395.296C1446.36 399.904 1447.38 403.104 1449.43 404.896C1451.48 406.688 1454.55 407.584 1458.64 407.584H1471.7V436C1470.16 436.256 1467.73 436.384 1464.4 436.384C1461.08 436.64 1457.88 436.768 1454.8 436.768C1446.1 436.768 1438.68 435.36 1432.53 432.544C1426.64 429.728 1422.16 425.248 1419.09 419.104C1416.02 412.704 1414.36 404.512 1414.1 394.528H1420.24C1418.45 403.232 1414.1 411.168 1407.19 418.336C1400.53 425.248 1392.08 430.752 1381.84 434.848C1371.6 438.688 1360.6 440.608 1348.82 440.608ZM1351.89 412.192C1365.72 412.192 1377.24 409.888 1386.45 405.28C1395.67 400.416 1402.58 393.76 1407.19 385.312C1411.8 376.608 1414.1 366.624 1414.1 355.36V337.696L1351.89 349.984C1338.07 352.544 1328.47 356.512 1323.09 361.888C1317.72 367.008 1315.03 373.792 1315.03 382.24C1315.03 391.712 1318.23 399.136 1324.63 404.512C1331.28 409.632 1340.37 412.192 1351.89 412.192ZM1506.11 436V232.48H1535.68L1536.83 277.792L1532.99 277.024C1535.29 261.92 1540.16 250.016 1547.58 241.312C1555.26 232.352 1564.99 227.872 1576.77 227.872C1588.8 227.872 1598.01 232.224 1604.41 240.928C1611.07 249.632 1615.17 262.432 1616.7 279.328H1612.86C1615.17 263.456 1620.29 250.912 1628.22 241.696C1636.41 232.48 1646.65 227.872 1658.94 227.872C1675.33 227.872 1687.23 233.504 1694.65 244.768C1702.08 256.032 1705.79 274.72 1705.79 300.832V436H1673.53V305.44C1673.53 287.264 1671.61 274.592 1667.77 267.424C1663.93 260 1657.92 256.288 1649.73 256.288C1644.35 256.288 1639.61 258.08 1635.52 261.664C1631.42 264.992 1628.09 270.368 1625.53 277.792C1623.23 285.216 1622.08 294.688 1622.08 306.208V436H1589.82V305.44C1589.82 288.032 1587.9 275.488 1584.06 267.808C1580.48 260.128 1574.46 256.288 1566.01 256.288C1560.64 256.288 1555.9 258.08 1551.81 261.664C1547.71 264.992 1544.38 270.368 1541.82 277.792C1539.52 285.216 1538.37 294.688 1538.37 306.208V436H1506.11ZM1809.32 440.608C1796.52 440.608 1785 438.304 1774.76 433.696C1764.52 429.088 1756.46 422.688 1750.57 414.496C1744.68 406.048 1741.74 396.32 1741.74 385.312C1741.74 367.904 1746.86 354.464 1757.1 344.992C1767.59 335.264 1783.98 328.224 1806.25 323.872L1874.6 310.048C1874.6 292.64 1870.63 279.712 1862.7 271.264C1855.02 262.816 1843.88 258.592 1829.29 258.592C1815.21 258.592 1804.2 261.792 1796.26 268.192C1788.33 274.336 1782.82 283.296 1779.75 295.072L1745.58 292.384C1749.42 273.184 1758.5 257.696 1772.84 245.92C1787.43 233.888 1806.25 227.872 1829.29 227.872C1853.86 227.872 1872.94 235.296 1886.5 250.144C1900.07 264.736 1906.86 284.96 1906.86 310.816V395.296C1906.86 399.904 1907.88 403.104 1909.93 404.896C1911.98 406.688 1915.05 407.584 1919.14 407.584H1932.2V436C1930.66 436.256 1928.23 436.384 1924.9 436.384C1921.58 436.64 1918.38 436.768 1915.3 436.768C1906.6 436.768 1899.18 435.36 1893.03 432.544C1887.14 429.728 1882.66 425.248 1879.59 419.104C1876.52 412.704 1874.86 404.512 1874.6 394.528H1880.74C1878.95 403.232 1874.6 411.168 1867.69 418.336C1861.03 425.248 1852.58 430.752 1842.34 434.848C1832.1 438.688 1821.1 440.608 1809.32 440.608ZM1812.39 412.192C1826.22 412.192 1837.74 409.888 1846.95 405.28C1856.17 400.416 1863.08 393.76 1867.69 385.312C1872.3 376.608 1874.6 366.624 1874.6 355.36V337.696L1812.39 349.984C1798.57 352.544 1788.97 356.512 1783.59 361.888C1778.22 367.008 1775.53 373.792 1775.53 382.24C1775.53 391.712 1778.73 399.136 1785.13 404.512C1791.78 409.632 1800.87 412.192 1812.39 412.192Z" fill="#FAFAFA"/>
<path d="M2042.64 436V389.152H2090.26V436H2042.64ZM2302.08 440.608C2283.13 440.608 2266.62 436.256 2252.54 427.552C2238.46 418.848 2227.58 406.56 2219.9 390.688C2212.22 374.56 2208.38 355.744 2208.38 334.24C2208.38 312.736 2212.22 294.048 2219.9 278.176C2227.58 262.304 2238.46 250.016 2252.54 241.312C2266.62 232.352 2283.13 227.872 2302.08 227.872C2317.18 227.872 2330.62 230.688 2342.4 236.32C2354.17 241.696 2363.9 249.632 2371.58 260.128C2379.26 270.624 2384.51 283.424 2387.32 298.528L2353.53 300.832C2350.46 287.264 2344.32 276.896 2335.1 269.728C2326.14 262.304 2315.13 258.592 2302.08 258.592C2283.39 258.592 2268.67 265.376 2257.92 278.944C2247.42 292.256 2242.17 310.688 2242.17 334.24C2242.17 357.792 2247.42 376.352 2257.92 389.92C2268.67 403.232 2283.39 409.888 2302.08 409.888C2315.13 409.888 2326.4 406.048 2335.87 398.368C2345.6 390.688 2352 379.168 2355.07 363.808L2388.86 366.112C2386.04 381.216 2380.67 394.4 2372.73 405.664C2364.8 416.672 2354.81 425.248 2342.78 431.392C2330.75 437.536 2317.18 440.608 2302.08 440.608ZM2442.47 493.6V232.48H2472.42L2473.19 278.56L2468.58 276.256C2473.7 260.384 2482.15 248.352 2493.93 240.16C2505.96 231.968 2519.78 227.872 2535.4 227.872C2555.62 227.872 2572.13 232.864 2584.93 242.848C2597.99 252.832 2607.59 265.888 2613.73 282.016C2619.88 298.144 2622.95 315.552 2622.95 334.24C2622.95 352.928 2619.88 370.336 2613.73 386.464C2607.59 402.592 2597.99 415.648 2584.93 425.632C2572.13 435.616 2555.62 440.608 2535.4 440.608C2524.9 440.608 2515.05 438.816 2505.83 435.232C2496.87 431.648 2489.19 426.656 2482.79 420.256C2476.65 413.856 2472.42 406.304 2470.12 397.6L2474.73 392.224V493.6H2442.47ZM2532.33 409.888C2549.99 409.888 2563.81 403.232 2573.8 389.92C2584.04 376.608 2589.16 358.048 2589.16 334.24C2589.16 310.432 2584.04 291.872 2573.8 278.56C2563.81 265.248 2549.99 258.592 2532.33 258.592C2520.55 258.592 2510.31 261.408 2501.61 267.04C2493.16 272.672 2486.5 281.12 2481.64 292.384C2477.03 303.648 2474.73 317.6 2474.73 334.24C2474.73 350.88 2477.03 364.832 2481.64 376.096C2486.25 387.36 2492.9 395.808 2501.61 401.44C2510.31 407.072 2520.55 409.888 2532.33 409.888ZM2672.72 493.6V232.48H2702.67L2703.44 278.56L2698.83 276.256C2703.95 260.384 2712.4 248.352 2724.18 240.16C2736.21 231.968 2750.03 227.872 2765.65 227.872C2785.87 227.872 2802.38 232.864 2815.18 242.848C2828.24 252.832 2837.84 265.888 2843.98 282.016C2850.13 298.144 2853.2 315.552 2853.2 334.24C2853.2 352.928 2850.13 370.336 2843.98 386.464C2837.84 402.592 2828.24 415.648 2815.18 425.632C2802.38 435.616 2785.87 440.608 2765.65 440.608C2755.15 440.608 2745.3 438.816 2736.08 435.232C2727.12 431.648 2719.44 426.656 2713.04 420.256C2706.9 413.856 2702.67 406.304 2700.37 397.6L2704.98 392.224V493.6H2672.72ZM2762.58 409.888C2780.24 409.888 2794.06 403.232 2804.05 389.92C2814.29 376.608 2819.41 358.048 2819.41 334.24C2819.41 310.432 2814.29 291.872 2804.05 278.56C2794.06 265.248 2780.24 258.592 2762.58 258.592C2750.8 258.592 2740.56 261.408 2731.86 267.04C2723.41 272.672 2716.75 281.12 2711.89 292.384C2707.28 303.648 2704.98 317.6 2704.98 334.24C2704.98 350.88 2707.28 364.832 2711.89 376.096C2716.5 387.36 2723.15 395.808 2731.86 401.44C2740.56 407.072 2750.8 409.888 2762.58 409.888Z" fill="#F65E00"/>
</svg>
