<svg width="1952" height="600" viewBox="0 0 1952 600" fill="none" xmlns="http://www.w3.org/2000/svg">
<path d="M600 392L504.249 558L504.137 557.929C487.252 584.069 458.193 600 426.864 600H120L200.324 460.772L240 392H600ZM240 392H0L113.077 196L199.602 46.0254C216.032 17.5463 246.411 3.25756e-05 279.29 0H466.154L240 392Z" fill="#FAFAFA"/>
<path d="M904.832 436V217.888C904.832 209.696 902.528 203.296 897.92 198.688C893.312 194.08 886.912 191.776 878.72 191.776H830.72V163.36H880.256C898.944 163.36 913.024 168.224 922.496 177.952C932.224 187.424 937.088 201.504 937.088 220.192V436H904.832ZM823.04 436V407.584H1007.36V436H823.04ZM1135.08 436V217.888C1135.08 209.696 1132.78 203.296 1128.17 198.688C1123.56 194.08 1117.16 191.776 1108.97 191.776H1060.97V163.36H1110.51C1129.19 163.36 1143.27 168.224 1152.75 177.952C1162.47 187.424 1167.34 201.504 1167.34 220.192V436H1135.08ZM1053.29 436V407.584H1237.61V436H1053.29ZM1348.82 440.608C1336.02 440.608 1324.5 438.304 1314.26 433.696C1304.02 429.088 1295.96 422.688 1290.07 414.496C1284.18 406.048 1281.24 396.32 1281.24 385.312C1281.24 367.904 1286.36 354.464 1296.6 344.992C1307.09 335.264 1323.48 328.224 1345.75 323.872L1414.1 310.048C1414.1 292.64 1410.13 279.712 1402.2 271.264C1394.52 262.816 1383.38 258.592 1368.79 258.592C1354.71 258.592 1343.7 261.792 1335.76 268.192C1327.83 274.336 1322.32 283.296 1319.25 295.072L1285.08 292.384C1288.92 273.184 1298 257.696 1312.34 245.92C1326.93 233.888 1345.75 227.872 1368.79 227.872C1393.36 227.872 1412.44 235.296 1426 250.144C1439.57 264.736 1446.36 284.96 1446.36 310.816V395.296C1446.36 399.904 1447.38 403.104 1449.43 404.896C1451.48 406.688 1454.55 407.584 1458.64 407.584H1471.7V436C1470.16 436.256 1467.73 436.384 1464.4 436.384C1461.08 436.64 1457.88 436.768 1454.8 436.768C1446.1 436.768 1438.68 435.36 1432.53 432.544C1426.64 429.728 1422.16 425.248 1419.09 419.104C1416.02 412.704 1414.36 404.512 1414.1 394.528H1420.24C1418.45 403.232 1414.1 411.168 1407.19 418.336C1400.53 425.248 1392.08 430.752 1381.84 434.848C1371.6 438.688 1360.6 440.608 1348.82 440.608ZM1351.89 412.192C1365.72 412.192 1377.24 409.888 1386.45 405.28C1395.67 400.416 1402.58 393.76 1407.19 385.312C1411.8 376.608 1414.1 366.624 1414.1 355.36V337.696L1351.89 349.984C1338.07 352.544 1328.47 356.512 1323.09 361.888C1317.72 367.008 1315.03 373.792 1315.03 382.24C1315.03 391.712 1318.23 399.136 1324.63 404.512C1331.28 409.632 1340.37 412.192 1351.89 412.192ZM1506.11 436V232.48H1535.68L1536.83 277.792L1532.99 277.024C1535.29 261.92 1540.16 250.016 1547.58 241.312C1555.26 232.352 1564.99 227.872 1576.77 227.872C1588.8 227.872 1598.01 232.224 1604.41 240.928C1611.07 249.632 1615.17 262.432 1616.7 279.328H1612.86C1615.17 263.456 1620.29 250.912 1628.22 241.696C1636.41 232.48 1646.65 227.872 1658.94 227.872C1675.33 227.872 1687.23 233.504 1694.65 244.768C1702.08 256.032 1705.79 274.72 1705.79 300.832V436H1673.53V305.44C1673.53 287.264 1671.61 274.592 1667.77 267.424C1663.93 260 1657.92 256.288 1649.73 256.288C1644.35 256.288 1639.61 258.08 1635.52 261.664C1631.42 264.992 1628.09 270.368 1625.53 277.792C1623.23 285.216 1622.08 294.688 1622.08 306.208V436H1589.82V305.44C1589.82 288.032 1587.9 275.488 1584.06 267.808C1580.48 260.128 1574.46 256.288 1566.01 256.288C1560.64 256.288 1555.9 258.08 1551.81 261.664C1547.71 264.992 1544.38 270.368 1541.82 277.792C1539.52 285.216 1538.37 294.688 1538.37 306.208V436H1506.11ZM1809.32 440.608C1796.52 440.608 1785 438.304 1774.76 433.696C1764.52 429.088 1756.46 422.688 1750.57 414.496C1744.68 406.048 1741.74 396.32 1741.74 385.312C1741.74 367.904 1746.86 354.464 1757.1 344.992C1767.59 335.264 1783.98 328.224 1806.25 323.872L1874.6 310.048C1874.6 292.64 1870.63 279.712 1862.7 271.264C1855.02 262.816 1843.88 258.592 1829.29 258.592C1815.21 258.592 1804.2 261.792 1796.26 268.192C1788.33 274.336 1782.82 283.296 1779.75 295.072L1745.58 292.384C1749.42 273.184 1758.5 257.696 1772.84 245.92C1787.43 233.888 1806.25 227.872 1829.29 227.872C1853.86 227.872 1872.94 235.296 1886.5 250.144C1900.07 264.736 1906.86 284.96 1906.86 310.816V395.296C1906.86 399.904 1907.88 403.104 1909.93 404.896C1911.98 406.688 1915.05 407.584 1919.14 407.584H1932.2V436C1930.66 436.256 1928.23 436.384 1924.9 436.384C1921.58 436.64 1918.38 436.768 1915.3 436.768C1906.6 436.768 1899.18 435.36 1893.03 432.544C1887.14 429.728 1882.66 425.248 1879.59 419.104C1876.52 412.704 1874.86 404.512 1874.6 394.528H1880.74C1878.95 403.232 1874.6 411.168 1867.69 418.336C1861.03 425.248 1852.58 430.752 1842.34 434.848C1832.1 438.688 1821.1 440.608 1809.32 440.608ZM1812.39 412.192C1826.22 412.192 1837.74 409.888 1846.95 405.28C1856.17 400.416 1863.08 393.76 1867.69 385.312C1872.3 376.608 1874.6 366.624 1874.6 355.36V337.696L1812.39 349.984C1798.57 352.544 1788.97 356.512 1783.59 361.888C1778.22 367.008 1775.53 373.792 1775.53 382.24C1775.53 391.712 1778.73 399.136 1785.13 404.512C1791.78 409.632 1800.87 412.192 1812.39 412.192Z" fill="#FAFAFA"/>
</svg>
