<svg width="1872" height="600" viewBox="0 0 1872 600" fill="none" xmlns="http://www.w3.org/2000/svg">
<path d="M520 379.733L437.016 523.6L436.53 523.295C419.667 546.213 392.788 560 363.942 560H104L188.773 413.061L208 379.733H520ZM208 379.733H0L98 209.866L170 85.0664C186.088 57.1805 215.835 40 248.029 40C251.186 40 254.289 40.1573 257.333 40.46L257.4 40H404L208 379.733Z" fill="#FAFAFA"/>
<path d="M821.376 436V221.344C821.376 213.408 819.072 207.264 814.464 202.912C810.112 198.304 803.968 196 796.032 196H749.184V163.36H800.256C819.968 163.36 834.816 168.48 844.8 178.72C855.04 188.704 860.16 203.552 860.16 223.264V436H821.376ZM741.504 436V403.36H928.896V436H741.504ZM1051.63 436V221.344C1051.63 213.408 1049.32 207.264 1044.71 202.912C1040.36 198.304 1034.22 196 1026.28 196H979.434V163.36H1030.51C1050.22 163.36 1065.07 168.48 1075.05 178.72C1085.29 188.704 1090.41 203.552 1090.41 223.264V436H1051.63ZM971.754 436V403.36H1159.15V436H971.754ZM1268.05 440.608C1255.25 440.608 1243.73 438.304 1233.49 433.696C1223.25 429.088 1215.06 422.56 1208.92 414.112C1203.03 405.664 1200.08 395.808 1200.08 384.544C1200.08 367.136 1205.33 353.568 1215.83 343.84C1226.58 334.112 1242.71 327.2 1264.21 323.104L1330.26 309.28C1330.26 293.408 1326.8 281.504 1319.89 273.568C1312.98 265.632 1302.61 261.664 1288.79 261.664C1275.99 261.664 1266 264.608 1258.84 270.496C1251.67 276.384 1246.8 284.576 1244.24 295.072L1203.54 292.384C1207.38 272.928 1216.72 257.184 1231.57 245.152C1246.42 233.12 1265.49 227.104 1288.79 227.104C1314.9 227.104 1334.74 234.528 1348.31 249.376C1362.13 264.224 1369.04 284.704 1369.04 310.816V391.456C1369.04 396.064 1370.07 399.392 1372.12 401.44C1374.16 403.232 1377.11 404.128 1380.95 404.128H1392.47V436C1390.93 436.256 1388.37 436.512 1384.79 436.768C1381.46 437.024 1378.13 437.152 1374.8 437.152C1365.59 437.152 1357.78 435.616 1351.38 432.544C1344.98 429.472 1340.12 424.736 1336.79 418.336C1333.72 411.68 1331.92 403.36 1331.41 393.376H1337.56C1336.02 402.336 1332.05 410.4 1325.65 417.568C1319.25 424.736 1311.06 430.368 1301.08 434.464C1291.09 438.56 1280.08 440.608 1268.05 440.608ZM1273.81 408.736C1286.1 408.736 1296.47 406.56 1304.92 402.208C1313.36 397.856 1319.64 391.712 1323.73 383.776C1328.08 375.84 1330.26 366.496 1330.26 355.744V340L1273.43 351.52C1261.14 353.824 1252.56 357.408 1247.7 362.272C1242.84 367.136 1240.4 373.536 1240.4 381.472C1240.4 389.92 1243.35 396.576 1249.24 401.44C1255.12 406.304 1263.32 408.736 1273.81 408.736ZM1424.57 436V231.712H1458.37L1459.9 277.792L1455.68 276.64C1458.24 261.024 1463.23 248.864 1470.65 240.16C1478.33 231.456 1487.93 227.104 1499.45 227.104C1511.74 227.104 1520.96 231.456 1527.1 240.16C1533.5 248.864 1537.47 261.792 1539.01 278.944H1534.78C1537.09 262.56 1542.33 249.888 1550.53 240.928C1558.72 231.712 1568.96 227.104 1581.25 227.104C1597.37 227.104 1609.02 232.736 1616.19 244C1623.61 255.008 1627.33 273.056 1627.33 298.144V436H1589.69V304.672C1589.69 288.288 1587.9 276.896 1584.32 270.496C1580.99 264.096 1575.74 260.896 1568.57 260.896C1563.97 260.896 1559.74 262.432 1555.9 265.504C1552.32 268.576 1549.5 273.44 1547.45 280.096C1545.41 286.496 1544.38 294.944 1544.38 305.44V436H1507.52V304.672C1507.52 288.8 1505.85 277.536 1502.53 270.88C1499.45 264.224 1494.21 260.896 1486.78 260.896C1481.92 260.896 1477.69 262.432 1474.11 265.504C1470.53 268.576 1467.58 273.44 1465.28 280.096C1463.23 286.496 1462.21 294.944 1462.21 305.44V436H1424.57ZM1728.55 440.608C1715.75 440.608 1704.23 438.304 1693.99 433.696C1683.75 429.088 1675.56 422.56 1669.42 414.112C1663.53 405.664 1660.58 395.808 1660.58 384.544C1660.58 367.136 1665.83 353.568 1676.33 343.84C1687.08 334.112 1703.21 327.2 1724.71 323.104L1790.76 309.28C1790.76 293.408 1787.3 281.504 1780.39 273.568C1773.48 265.632 1763.11 261.664 1749.29 261.664C1736.49 261.664 1726.5 264.608 1719.34 270.496C1712.17 276.384 1707.3 284.576 1704.74 295.072L1664.04 292.384C1667.88 272.928 1677.22 257.184 1692.07 245.152C1706.92 233.12 1725.99 227.104 1749.29 227.104C1775.4 227.104 1795.24 234.528 1808.81 249.376C1822.63 264.224 1829.54 284.704 1829.54 310.816V391.456C1829.54 396.064 1830.57 399.392 1832.62 401.44C1834.66 403.232 1837.61 404.128 1841.45 404.128H1852.97V436C1851.43 436.256 1848.87 436.512 1845.29 436.768C1841.96 437.024 1838.63 437.152 1835.3 437.152C1826.09 437.152 1818.28 435.616 1811.88 432.544C1805.48 429.472 1800.62 424.736 1797.29 418.336C1794.22 411.68 1792.42 403.36 1791.91 393.376H1798.06C1796.52 402.336 1792.55 410.4 1786.15 417.568C1779.75 424.736 1771.56 430.368 1761.58 434.464C1751.59 438.56 1740.58 440.608 1728.55 440.608ZM1734.31 408.736C1746.6 408.736 1756.97 406.56 1765.42 402.208C1773.86 397.856 1780.14 391.712 1784.23 383.776C1788.58 375.84 1790.76 366.496 1790.76 355.744V340L1733.93 351.52C1721.64 353.824 1713.06 357.408 1708.2 362.272C1703.34 367.136 1700.9 373.536 1700.9 381.472C1700.9 389.92 1703.85 396.576 1709.74 401.44C1715.62 406.304 1723.82 408.736 1734.31 408.736Z" fill="#FAFAFA"/>
</svg>
