<svg width="3143" height="1020" viewBox="0 0 3143 1020" fill="none" xmlns="http://www.w3.org/2000/svg">
<path d="M443.539 240L240 592.8H456L659.539 240H443.539ZM456 592.8H780L672 780H348L456 592.8Z" fill="#111111"/>
<path d="M671.712 779.5H512.614L718.998 697.528L671.712 779.5Z" fill="#111111" stroke="#111111"/>
<path d="M443.469 240H551.469L341.699 416.4L443.469 240Z" fill="#111111"/>
<path d="M395.529 499.418C370.951 461.463 314.941 462.903 292.345 502.069C269.076 542.401 298.185 592.8 344.748 592.8C392.703 592.8 421.595 539.67 395.529 499.418Z" fill="#111111"/>
<path d="M503.529 686.617C478.951 648.663 422.941 650.103 400.345 689.269C377.076 729.601 406.185 780 452.748 780C500.703 780 529.595 726.87 503.529 686.617Z" fill="#111111"/>
<path d="M1058.28 638V433.52C1058.28 425.84 1056.12 419.84 1051.8 415.52C1047.48 411.2 1041.48 409.04 1033.8 409.04H988.8V382.4H1035.24C1052.76 382.4 1065.96 386.96 1074.84 396.08C1083.96 404.96 1088.52 418.16 1088.52 435.68V638H1058.28ZM981.6 638V611.36H1154.4V638H981.6ZM1274.14 638V433.52C1274.14 425.84 1271.98 419.84 1267.66 415.52C1263.34 411.2 1257.34 409.04 1249.66 409.04H1204.66V382.4H1251.1C1268.62 382.4 1281.82 386.96 1290.7 396.08C1299.82 404.96 1304.38 418.16 1304.38 435.68V638H1274.14ZM1197.46 638V611.36H1370.26V638H1197.46ZM1474.52 642.32C1462.52 642.32 1451.72 640.16 1442.12 635.84C1432.52 631.52 1424.96 625.52 1419.44 617.84C1413.92 609.92 1411.16 600.8 1411.16 590.48C1411.16 574.16 1415.96 561.56 1425.56 552.68C1435.4 543.56 1450.76 536.96 1471.64 532.88L1535.72 519.92C1535.72 503.6 1532 491.48 1524.56 483.56C1517.36 475.64 1506.92 471.68 1493.24 471.68C1480.04 471.68 1469.72 474.68 1462.28 480.68C1454.84 486.44 1449.68 494.84 1446.8 505.88L1414.76 503.36C1418.36 485.36 1426.88 470.84 1440.32 459.8C1454 448.52 1471.64 442.88 1493.24 442.88C1516.28 442.88 1534.16 449.84 1546.88 463.76C1559.6 477.44 1565.96 496.4 1565.96 520.64V599.84C1565.96 604.16 1566.92 607.16 1568.84 608.84C1570.76 610.52 1573.64 611.36 1577.48 611.36H1589.72V638C1588.28 638.24 1586 638.36 1582.88 638.36C1579.76 638.6 1576.76 638.72 1573.88 638.72C1565.72 638.72 1558.76 637.4 1553 634.76C1547.48 632.12 1543.28 627.92 1540.4 622.16C1537.52 616.16 1535.96 608.48 1535.72 599.12H1541.48C1539.8 607.28 1535.72 614.72 1529.24 621.44C1523 627.92 1515.08 633.08 1505.48 636.92C1495.88 640.52 1485.56 642.32 1474.52 642.32ZM1477.4 615.68C1490.36 615.68 1501.16 613.52 1509.8 609.2C1518.44 604.64 1524.92 598.4 1529.24 590.48C1533.56 582.32 1535.72 572.96 1535.72 562.4V545.84L1477.4 557.36C1464.44 559.76 1455.44 563.48 1450.4 568.52C1445.36 573.32 1442.84 579.68 1442.84 587.6C1442.84 596.48 1445.84 603.44 1451.84 608.48C1458.08 613.28 1466.6 615.68 1477.4 615.68ZM1621.98 638V447.2H1649.7L1650.78 489.68L1647.18 488.96C1649.34 474.8 1653.9 463.64 1660.86 455.48C1668.06 447.08 1677.18 442.88 1688.22 442.88C1699.5 442.88 1708.14 446.96 1714.14 455.12C1720.38 463.28 1724.22 475.28 1725.66 491.12H1722.06C1724.22 476.24 1729.02 464.48 1736.46 455.84C1744.14 447.2 1753.74 442.88 1765.26 442.88C1780.62 442.88 1791.78 448.16 1798.74 458.72C1805.7 469.28 1809.18 486.8 1809.18 511.28V638H1778.94V515.6C1778.94 498.56 1777.14 486.68 1773.54 479.96C1769.94 473 1764.3 469.52 1756.62 469.52C1751.58 469.52 1747.14 471.2 1743.3 474.56C1739.46 477.68 1736.34 482.72 1733.94 489.68C1731.78 496.64 1730.7 505.52 1730.7 516.32V638H1700.46V515.6C1700.46 499.28 1698.66 487.52 1695.06 480.32C1691.7 473.12 1686.06 469.52 1678.14 469.52C1673.1 469.52 1668.66 471.2 1664.82 474.56C1660.98 477.68 1657.86 482.72 1655.46 489.68C1653.3 496.64 1652.22 505.52 1652.22 516.32V638H1621.98ZM1906.24 642.32C1894.24 642.32 1883.44 640.16 1873.84 635.84C1864.24 631.52 1856.68 625.52 1851.16 617.84C1845.64 609.92 1842.88 600.8 1842.88 590.48C1842.88 574.16 1847.68 561.56 1857.28 552.68C1867.12 543.56 1882.48 536.96 1903.36 532.88L1967.44 519.92C1967.44 503.6 1963.72 491.48 1956.28 483.56C1949.08 475.64 1938.64 471.68 1924.96 471.68C1911.76 471.68 1901.44 474.68 1894 480.68C1886.56 486.44 1881.4 494.84 1878.52 505.88L1846.48 503.36C1850.08 485.36 1858.6 470.84 1872.04 459.8C1885.72 448.52 1903.36 442.88 1924.96 442.88C1948 442.88 1965.88 449.84 1978.6 463.76C1991.32 477.44 1997.68 496.4 1997.68 520.64V599.84C1997.68 604.16 1998.64 607.16 2000.56 608.84C2002.48 610.52 2005.36 611.36 2009.2 611.36H2021.44V638C2020 638.24 2017.72 638.36 2014.6 638.36C2011.48 638.6 2008.48 638.72 2005.6 638.72C1997.44 638.72 1990.48 637.4 1984.72 634.76C1979.2 632.12 1975 627.92 1972.12 622.16C1969.24 616.16 1967.68 608.48 1967.44 599.12H1973.2C1971.52 607.28 1967.44 614.72 1960.96 621.44C1954.72 627.92 1946.8 633.08 1937.2 636.92C1927.6 640.52 1917.28 642.32 1906.24 642.32ZM1909.12 615.68C1922.08 615.68 1932.88 613.52 1941.52 609.2C1950.16 604.64 1956.64 598.4 1960.96 590.48C1965.28 582.32 1967.44 572.96 1967.44 562.4V545.84L1909.12 557.36C1896.16 559.76 1887.16 563.48 1882.12 568.52C1877.08 573.32 1874.56 579.68 1874.56 587.6C1874.56 596.48 1877.56 603.44 1883.56 608.48C1889.8 613.28 1898.32 615.68 1909.12 615.68ZM2124.98 638V594.08H2169.62V638H2124.98ZM2368.2 642.32C2350.44 642.32 2334.96 638.24 2321.76 630.08C2308.56 621.92 2298.36 610.4 2291.16 595.52C2283.96 580.4 2280.36 562.76 2280.36 542.6C2280.36 522.44 2283.96 504.92 2291.16 490.04C2298.36 475.16 2308.56 463.64 2321.76 455.48C2334.96 447.08 2350.44 442.88 2368.2 442.88C2382.36 442.88 2394.96 445.52 2406 450.8C2417.04 455.84 2426.16 463.28 2433.36 473.12C2440.56 482.96 2445.48 494.96 2448.12 509.12L2416.44 511.28C2413.56 498.56 2407.8 488.84 2399.16 482.12C2390.76 475.16 2380.44 471.68 2368.2 471.68C2350.68 471.68 2336.88 478.04 2326.8 490.76C2316.96 503.24 2312.04 520.52 2312.04 542.6C2312.04 564.68 2316.96 582.08 2326.8 594.8C2336.88 607.28 2350.68 613.52 2368.2 613.52C2380.44 613.52 2391 609.92 2399.88 602.72C2409 595.52 2415 584.72 2417.88 570.32L2449.56 572.48C2446.92 586.64 2441.88 599 2434.44 609.56C2427 619.88 2417.64 627.92 2406.36 633.68C2395.08 639.44 2382.36 642.32 2368.2 642.32ZM2499.82 692V447.2H2527.9L2528.62 490.4L2524.3 488.24C2529.1 473.36 2537.02 462.08 2548.06 454.4C2559.34 446.72 2572.3 442.88 2586.94 442.88C2605.9 442.88 2621.38 447.56 2633.38 456.92C2645.62 466.28 2654.62 478.52 2660.38 493.64C2666.14 508.76 2669.02 525.08 2669.02 542.6C2669.02 560.12 2666.14 576.44 2660.38 591.56C2654.62 606.68 2645.62 618.92 2633.38 628.28C2621.38 637.64 2605.9 642.32 2586.94 642.32C2577.1 642.32 2567.86 640.64 2559.22 637.28C2550.82 633.92 2543.62 629.24 2537.62 623.24C2531.86 617.24 2527.9 610.16 2525.74 602L2530.06 596.96V692H2499.82ZM2584.06 613.52C2600.62 613.52 2613.58 607.28 2622.94 594.8C2632.54 582.32 2637.34 564.92 2637.34 542.6C2637.34 520.28 2632.54 502.88 2622.94 490.4C2613.58 477.92 2600.62 471.68 2584.06 471.68C2573.02 471.68 2563.42 474.32 2555.26 479.6C2547.34 484.88 2541.1 492.8 2536.54 503.36C2532.22 513.92 2530.06 527 2530.06 542.6C2530.06 558.2 2532.22 571.28 2536.54 581.84C2540.86 592.4 2547.1 600.32 2555.26 605.6C2563.42 610.88 2573.02 613.52 2584.06 613.52ZM2715.68 692V447.2H2743.76L2744.48 490.4L2740.16 488.24C2744.96 473.36 2752.88 462.08 2763.92 454.4C2775.2 446.72 2788.16 442.88 2802.8 442.88C2821.76 442.88 2837.24 447.56 2849.24 456.92C2861.48 466.28 2870.48 478.52 2876.24 493.64C2882 508.76 2884.88 525.08 2884.88 542.6C2884.88 560.12 2882 576.44 2876.24 591.56C2870.48 606.68 2861.48 618.92 2849.24 628.28C2837.24 637.64 2821.76 642.32 2802.8 642.32C2792.96 642.32 2783.72 640.64 2775.08 637.28C2766.68 633.92 2759.48 629.24 2753.48 623.24C2747.72 617.24 2743.76 610.16 2741.6 602L2745.92 596.96V692H2715.68ZM2799.92 613.52C2816.48 613.52 2829.44 607.28 2838.8 594.8C2848.4 582.32 2853.2 564.92 2853.2 542.6C2853.2 520.28 2848.4 502.88 2838.8 490.4C2829.44 477.92 2816.48 471.68 2799.92 471.68C2788.88 471.68 2779.28 474.32 2771.12 479.6C2763.2 484.88 2756.96 492.8 2752.4 503.36C2748.08 513.92 2745.92 527 2745.92 542.6C2745.92 558.2 2748.08 571.28 2752.4 581.84C2756.72 592.4 2762.96 600.32 2771.12 605.6C2779.28 610.88 2788.88 613.52 2799.92 613.52Z" fill="#111111"/>
</svg>
