<svg width="2663" height="540" viewBox="0 0 2663 540" fill="none" xmlns="http://www.w3.org/2000/svg">
<path d="M203.539 0L0 352.8H216L419.539 0H203.539ZM216 352.8H540L432 540H108L216 352.8Z" fill="#111111"/>
<path d="M431.712 539.5H272.614L478.998 457.528L431.712 539.5Z" fill="#111111" stroke="#111111"/>
<path d="M203.469 0H311.469L101.699 176.4L203.469 0Z" fill="#111111"/>
<path d="M155.529 259.418C130.951 221.463 74.9409 222.903 52.3449 262.069C29.0762 302.401 58.1846 352.8 104.748 352.8C152.703 352.8 181.595 299.67 155.529 259.418Z" fill="#111111"/>
<path d="M263.529 446.618C238.951 408.663 182.941 410.103 160.345 449.269C137.076 489.601 166.185 540 212.748 540C260.703 540 289.595 486.87 263.529 446.618Z" fill="#111111"/>
<path d="M818.28 398V193.52C818.28 185.84 816.12 179.84 811.8 175.52C807.48 171.2 801.48 169.04 793.8 169.04H748.8V142.4H795.24C812.76 142.4 825.96 146.96 834.84 156.08C843.96 164.96 848.52 178.16 848.52 195.68V398H818.28ZM741.6 398V371.36H914.4V398H741.6ZM1034.14 398V193.52C1034.14 185.84 1031.98 179.84 1027.66 175.52C1023.34 171.2 1017.34 169.04 1009.66 169.04H964.659V142.4H1011.1C1028.62 142.4 1041.82 146.96 1050.7 156.08C1059.82 164.96 1064.38 178.16 1064.38 195.68V398H1034.14ZM957.459 398V371.36H1130.26V398H957.459ZM1234.52 402.32C1222.52 402.32 1211.72 400.16 1202.12 395.84C1192.52 391.52 1184.96 385.52 1179.44 377.84C1173.92 369.92 1171.16 360.8 1171.16 350.48C1171.16 334.16 1175.96 321.56 1185.56 312.68C1195.4 303.56 1210.76 296.96 1231.64 292.88L1295.72 279.92C1295.72 263.6 1292 251.48 1284.56 243.56C1277.36 235.64 1266.92 231.68 1253.24 231.68C1240.04 231.68 1229.72 234.68 1222.28 240.68C1214.84 246.44 1209.68 254.84 1206.8 265.88L1174.76 263.36C1178.36 245.36 1186.88 230.84 1200.32 219.8C1214 208.52 1231.64 202.88 1253.24 202.88C1276.28 202.88 1294.16 209.84 1306.88 223.76C1319.6 237.44 1325.96 256.4 1325.96 280.64V359.84C1325.96 364.16 1326.92 367.16 1328.84 368.84C1330.76 370.52 1333.64 371.36 1337.48 371.36H1349.72V398C1348.28 398.24 1346 398.36 1342.88 398.36C1339.76 398.6 1336.76 398.72 1333.88 398.72C1325.72 398.72 1318.76 397.4 1313 394.76C1307.48 392.12 1303.28 387.92 1300.4 382.16C1297.52 376.16 1295.96 368.48 1295.72 359.12H1301.48C1299.8 367.28 1295.72 374.72 1289.24 381.44C1283 387.92 1275.08 393.08 1265.48 396.92C1255.88 400.52 1245.56 402.32 1234.52 402.32ZM1237.4 375.68C1250.36 375.68 1261.16 373.52 1269.8 369.2C1278.44 364.64 1284.92 358.4 1289.24 350.48C1293.56 342.32 1295.72 332.96 1295.72 322.4V305.84L1237.4 317.36C1224.44 319.76 1215.44 323.48 1210.4 328.52C1205.36 333.32 1202.84 339.68 1202.84 347.6C1202.84 356.48 1205.84 363.44 1211.84 368.48C1218.08 373.28 1226.6 375.68 1237.4 375.68ZM1381.98 398V207.2H1409.7L1410.78 249.68L1407.18 248.96C1409.34 234.8 1413.9 223.64 1420.86 215.48C1428.06 207.08 1437.18 202.88 1448.22 202.88C1459.5 202.88 1468.14 206.96 1474.14 215.12C1480.38 223.28 1484.22 235.28 1485.66 251.12H1482.06C1484.22 236.24 1489.02 224.48 1496.46 215.84C1504.14 207.2 1513.74 202.88 1525.26 202.88C1540.62 202.88 1551.78 208.16 1558.74 218.72C1565.7 229.28 1569.18 246.8 1569.18 271.28V398H1538.94V275.6C1538.94 258.56 1537.14 246.68 1533.54 239.96C1529.94 233 1524.3 229.52 1516.62 229.52C1511.58 229.52 1507.14 231.2 1503.3 234.56C1499.46 237.68 1496.34 242.72 1493.94 249.68C1491.78 256.64 1490.7 265.52 1490.7 276.32V398H1460.46V275.6C1460.46 259.28 1458.66 247.52 1455.06 240.32C1451.7 233.12 1446.06 229.52 1438.14 229.52C1433.1 229.52 1428.66 231.2 1424.82 234.56C1420.98 237.68 1417.86 242.72 1415.46 249.68C1413.3 256.64 1412.22 265.52 1412.22 276.32V398H1381.98ZM1666.24 402.32C1654.24 402.32 1643.44 400.16 1633.84 395.84C1624.24 391.52 1616.68 385.52 1611.16 377.84C1605.64 369.92 1602.88 360.8 1602.88 350.48C1602.88 334.16 1607.68 321.56 1617.28 312.68C1627.12 303.56 1642.48 296.96 1663.36 292.88L1727.44 279.92C1727.44 263.6 1723.72 251.48 1716.28 243.56C1709.08 235.64 1698.64 231.68 1684.96 231.68C1671.76 231.68 1661.44 234.68 1654 240.68C1646.56 246.44 1641.4 254.84 1638.52 265.88L1606.48 263.36C1610.08 245.36 1618.6 230.84 1632.04 219.8C1645.72 208.52 1663.36 202.88 1684.96 202.88C1708 202.88 1725.88 209.84 1738.6 223.76C1751.32 237.44 1757.68 256.4 1757.68 280.64V359.84C1757.68 364.16 1758.64 367.16 1760.56 368.84C1762.48 370.52 1765.36 371.36 1769.2 371.36H1781.44V398C1780 398.24 1777.72 398.36 1774.6 398.36C1771.48 398.6 1768.48 398.72 1765.6 398.72C1757.44 398.72 1750.48 397.4 1744.72 394.76C1739.2 392.12 1735 387.92 1732.12 382.16C1729.24 376.16 1727.68 368.48 1727.44 359.12H1733.2C1731.52 367.28 1727.44 374.72 1720.96 381.44C1714.72 387.92 1706.8 393.08 1697.2 396.92C1687.6 400.52 1677.28 402.32 1666.24 402.32ZM1669.12 375.68C1682.08 375.68 1692.88 373.52 1701.52 369.2C1710.16 364.64 1716.64 358.4 1720.96 350.48C1725.28 342.32 1727.44 332.96 1727.44 322.4V305.84L1669.12 317.36C1656.16 319.76 1647.16 323.48 1642.12 328.52C1637.08 333.32 1634.56 339.68 1634.56 347.6C1634.56 356.48 1637.56 363.44 1643.56 368.48C1649.8 373.28 1658.32 375.68 1669.12 375.68ZM1884.98 398V354.08H1929.62V398H1884.98ZM2128.2 402.32C2110.44 402.32 2094.96 398.24 2081.76 390.08C2068.56 381.92 2058.36 370.4 2051.16 355.52C2043.96 340.4 2040.36 322.76 2040.36 302.6C2040.36 282.44 2043.96 264.92 2051.16 250.04C2058.36 235.16 2068.56 223.64 2081.76 215.48C2094.96 207.08 2110.44 202.88 2128.2 202.88C2142.36 202.88 2154.96 205.52 2166 210.8C2177.04 215.84 2186.16 223.28 2193.36 233.12C2200.56 242.96 2205.48 254.96 2208.12 269.12L2176.44 271.28C2173.56 258.56 2167.8 248.84 2159.16 242.12C2150.76 235.16 2140.44 231.68 2128.2 231.68C2110.68 231.68 2096.88 238.04 2086.8 250.76C2076.96 263.24 2072.04 280.52 2072.04 302.6C2072.04 324.68 2076.96 342.08 2086.8 354.8C2096.88 367.28 2110.68 373.52 2128.2 373.52C2140.44 373.52 2151 369.92 2159.88 362.72C2169 355.52 2175 344.72 2177.88 330.32L2209.56 332.48C2206.92 346.64 2201.88 359 2194.44 369.56C2187 379.88 2177.64 387.92 2166.36 393.68C2155.08 399.44 2142.36 402.32 2128.2 402.32ZM2259.82 452V207.2H2287.9L2288.62 250.4L2284.3 248.24C2289.1 233.36 2297.02 222.08 2308.06 214.4C2319.34 206.72 2332.3 202.88 2346.94 202.88C2365.9 202.88 2381.38 207.56 2393.38 216.92C2405.62 226.28 2414.62 238.52 2420.38 253.64C2426.14 268.76 2429.02 285.08 2429.02 302.6C2429.02 320.12 2426.14 336.44 2420.38 351.56C2414.62 366.68 2405.62 378.92 2393.38 388.28C2381.38 397.64 2365.9 402.32 2346.94 402.32C2337.1 402.32 2327.86 400.64 2319.22 397.28C2310.82 393.92 2303.62 389.24 2297.62 383.24C2291.86 377.24 2287.9 370.16 2285.74 362L2290.06 356.96V452H2259.82ZM2344.06 373.52C2360.62 373.52 2373.58 367.28 2382.94 354.8C2392.54 342.32 2397.34 324.92 2397.34 302.6C2397.34 280.28 2392.54 262.88 2382.94 250.4C2373.58 237.92 2360.62 231.68 2344.06 231.68C2333.02 231.68 2323.42 234.32 2315.26 239.6C2307.34 244.88 2301.1 252.8 2296.54 263.36C2292.22 273.92 2290.06 287 2290.06 302.6C2290.06 318.2 2292.22 331.28 2296.54 341.84C2300.86 352.4 2307.1 360.32 2315.26 365.6C2323.42 370.88 2333.02 373.52 2344.06 373.52ZM2475.68 452V207.2H2503.76L2504.48 250.4L2500.16 248.24C2504.96 233.36 2512.88 222.08 2523.92 214.4C2535.2 206.72 2548.16 202.88 2562.8 202.88C2581.76 202.88 2597.24 207.56 2609.24 216.92C2621.48 226.28 2630.48 238.52 2636.24 253.64C2642 268.76 2644.88 285.08 2644.88 302.6C2644.88 320.12 2642 336.44 2636.24 351.56C2630.48 366.68 2621.48 378.92 2609.24 388.28C2597.24 397.64 2581.76 402.32 2562.8 402.32C2552.96 402.32 2543.72 400.64 2535.08 397.28C2526.68 393.92 2519.48 389.24 2513.48 383.24C2507.72 377.24 2503.76 370.16 2501.6 362L2505.92 356.96V452H2475.68ZM2559.92 373.52C2576.48 373.52 2589.44 367.28 2598.8 354.8C2608.4 342.32 2613.2 324.92 2613.2 302.6C2613.2 280.28 2608.4 262.88 2598.8 250.4C2589.44 237.92 2576.48 231.68 2559.92 231.68C2548.88 231.68 2539.28 234.32 2531.12 239.6C2523.2 244.88 2516.96 252.8 2512.4 263.36C2508.08 273.92 2505.92 287 2505.92 302.6C2505.92 318.2 2508.08 331.28 2512.4 341.84C2516.72 352.4 2522.96 360.32 2531.12 365.6C2539.28 370.88 2548.88 373.52 2559.92 373.52Z" fill="#111111"/>
</svg>
