<svg width="7500" height="2500" viewBox="0 0 7500 2500" fill="none" xmlns="http://www.w3.org/2000/svg">
<rect width="7500" height="2500" fill="#FAFAFA"/>
<path d="M2913.5 1342L2817.75 1508L2817.64 1507.93C2800.75 1534.07 2771.69 1550 2740.36 1550H2433.5L2513.82 1410.77L2553.5 1342H2913.5ZM2553.5 1342H2313.5L2426.58 1146L2513.1 996.025C2529.53 967.546 2559.91 950 2592.79 950H2779.65L2553.5 1342Z" fill="#111111"/>
<path d="M3218.33 1386V1167.89C3218.33 1159.7 3216.03 1153.3 3211.42 1148.69C3206.81 1144.08 3200.41 1141.78 3192.22 1141.78H3144.22V1113.36H3193.76C3212.44 1113.36 3226.52 1118.22 3236 1127.95C3245.72 1137.42 3250.59 1151.5 3250.59 1170.19V1386H3218.33ZM3136.54 1386V1357.58H3320.86V1386H3136.54ZM3448.58 1386V1167.89C3448.58 1159.7 3446.28 1153.3 3441.67 1148.69C3437.06 1144.08 3430.66 1141.78 3422.47 1141.78H3374.47V1113.36H3424.01C3442.69 1113.36 3456.77 1118.22 3466.25 1127.95C3475.97 1137.42 3480.84 1151.5 3480.84 1170.19V1386H3448.58ZM3366.79 1386V1357.58H3551.11V1386H3366.79ZM3662.32 1390.61C3649.52 1390.61 3638 1388.3 3627.76 1383.7C3617.52 1379.09 3609.46 1372.69 3603.57 1364.5C3597.68 1356.05 3594.74 1346.32 3594.74 1335.31C3594.74 1317.9 3599.86 1304.46 3610.1 1294.99C3620.59 1285.26 3636.98 1278.22 3659.25 1273.87L3727.6 1260.05C3727.6 1242.64 3723.63 1229.71 3715.7 1221.26C3708.02 1212.82 3696.88 1208.59 3682.29 1208.59C3668.21 1208.59 3657.2 1211.79 3649.26 1218.19C3641.33 1224.34 3635.82 1233.3 3632.75 1245.07L3598.58 1242.38C3602.42 1223.18 3611.5 1207.7 3625.84 1195.92C3640.43 1183.89 3659.25 1177.87 3682.29 1177.87C3706.86 1177.87 3725.94 1185.3 3739.5 1200.14C3753.07 1214.74 3759.86 1234.96 3759.86 1260.82V1345.3C3759.86 1349.9 3760.88 1353.1 3762.93 1354.9C3764.98 1356.69 3768.05 1357.58 3772.14 1357.58H3785.2V1386C3783.66 1386.26 3781.23 1386.38 3777.9 1386.38C3774.58 1386.64 3771.38 1386.77 3768.3 1386.77C3759.6 1386.77 3752.18 1385.36 3746.03 1382.54C3740.14 1379.73 3735.66 1375.25 3732.59 1369.1C3729.52 1362.7 3727.86 1354.51 3727.6 1344.53H3733.74C3731.95 1353.23 3727.6 1361.17 3720.69 1368.34C3714.03 1375.25 3705.58 1380.75 3695.34 1384.85C3685.1 1388.69 3674.1 1390.61 3662.32 1390.61ZM3665.39 1362.19C3679.22 1362.19 3690.74 1359.89 3699.95 1355.28C3709.17 1350.42 3716.08 1343.76 3720.69 1335.31C3725.3 1326.61 3727.6 1316.62 3727.6 1305.36V1287.7L3665.39 1299.98C3651.57 1302.54 3641.97 1306.51 3636.59 1311.89C3631.22 1317.01 3628.53 1323.79 3628.53 1332.24C3628.53 1341.71 3631.73 1349.14 3638.13 1354.51C3644.78 1359.63 3653.87 1362.19 3665.39 1362.19ZM3819.61 1386V1182.48H3849.18L3850.33 1227.79L3846.49 1227.02C3848.79 1211.92 3853.66 1200.02 3861.08 1191.31C3868.76 1182.35 3878.49 1177.87 3890.27 1177.87C3902.3 1177.87 3911.51 1182.22 3917.91 1190.93C3924.57 1199.63 3928.67 1212.43 3930.2 1229.33H3926.36C3928.67 1213.46 3933.79 1200.91 3941.72 1191.7C3949.91 1182.48 3960.15 1177.87 3972.44 1177.87C3988.83 1177.87 4000.73 1183.5 4008.15 1194.77C4015.58 1206.03 4019.29 1224.72 4019.29 1250.83V1386H3987.03V1255.44C3987.03 1237.26 3985.11 1224.59 3981.27 1217.42C3977.43 1210 3971.42 1206.29 3963.23 1206.29C3957.85 1206.29 3953.11 1208.08 3949.02 1211.66C3944.92 1214.99 3941.59 1220.37 3939.03 1227.79C3936.73 1235.22 3935.58 1244.69 3935.58 1256.21V1386H3903.32V1255.44C3903.32 1238.03 3901.4 1225.49 3897.56 1217.81C3893.98 1210.13 3887.96 1206.29 3879.51 1206.29C3874.14 1206.29 3869.4 1208.08 3865.31 1211.66C3861.21 1214.99 3857.88 1220.37 3855.32 1227.79C3853.02 1235.22 3851.87 1244.69 3851.87 1256.21V1386H3819.61ZM4122.82 1390.61C4110.02 1390.61 4098.5 1388.3 4088.26 1383.7C4078.02 1379.09 4069.96 1372.69 4064.07 1364.5C4058.18 1356.05 4055.24 1346.32 4055.24 1335.31C4055.24 1317.9 4060.36 1304.46 4070.6 1294.99C4081.09 1285.26 4097.48 1278.22 4119.75 1273.87L4188.1 1260.05C4188.1 1242.64 4184.13 1229.71 4176.2 1221.26C4168.52 1212.82 4157.38 1208.59 4142.79 1208.59C4128.71 1208.59 4117.7 1211.79 4109.76 1218.19C4101.83 1224.34 4096.32 1233.3 4093.25 1245.07L4059.08 1242.38C4062.92 1223.18 4072 1207.7 4086.34 1195.92C4100.93 1183.89 4119.75 1177.87 4142.79 1177.87C4167.36 1177.87 4186.44 1185.3 4200 1200.14C4213.57 1214.74 4220.36 1234.96 4220.36 1260.82V1345.3C4220.36 1349.9 4221.38 1353.1 4223.43 1354.9C4225.48 1356.69 4228.55 1357.58 4232.64 1357.58H4245.7V1386C4244.16 1386.26 4241.73 1386.38 4238.4 1386.38C4235.08 1386.64 4231.88 1386.77 4228.8 1386.77C4220.1 1386.77 4212.68 1385.36 4206.53 1382.54C4200.64 1379.73 4196.16 1375.25 4193.09 1369.1C4190.02 1362.7 4188.36 1354.51 4188.1 1344.53H4194.24C4192.45 1353.23 4188.1 1361.17 4181.19 1368.34C4174.53 1375.25 4166.08 1380.75 4155.84 1384.85C4145.6 1388.69 4134.6 1390.61 4122.82 1390.61ZM4125.89 1362.19C4139.72 1362.19 4151.24 1359.89 4160.45 1355.28C4169.67 1350.42 4176.58 1343.76 4181.19 1335.31C4185.8 1326.61 4188.1 1316.62 4188.1 1305.36V1287.7L4125.89 1299.98C4112.07 1302.54 4102.47 1306.51 4097.09 1311.89C4091.72 1317.01 4089.03 1323.79 4089.03 1332.24C4089.03 1341.71 4092.23 1349.14 4098.63 1354.51C4105.28 1359.63 4114.37 1362.19 4125.89 1362.19Z" fill="#111111"/>
<path d="M4356.14 1386V1339.15H4403.76V1386H4356.14ZM4615.58 1390.61C4596.63 1390.61 4580.12 1386.26 4566.04 1377.55C4551.96 1368.85 4541.08 1356.56 4533.4 1340.69C4525.72 1324.56 4521.88 1305.74 4521.88 1284.24C4521.88 1262.74 4525.72 1244.05 4533.4 1228.18C4541.08 1212.3 4551.96 1200.02 4566.04 1191.31C4580.12 1182.35 4596.63 1177.87 4615.58 1177.87C4630.68 1177.87 4644.12 1180.69 4655.9 1186.32C4667.67 1191.7 4677.4 1199.63 4685.08 1210.13C4692.76 1220.62 4698.01 1233.42 4700.82 1248.53L4667.03 1250.83C4663.96 1237.26 4657.82 1226.9 4648.6 1219.73C4639.64 1212.3 4628.63 1208.59 4615.58 1208.59C4596.89 1208.59 4582.17 1215.38 4571.42 1228.94C4560.92 1242.26 4555.67 1260.69 4555.67 1284.24C4555.67 1307.79 4560.92 1326.35 4571.42 1339.92C4582.17 1353.23 4596.89 1359.89 4615.58 1359.89C4628.63 1359.89 4639.9 1356.05 4649.37 1348.37C4659.1 1340.69 4665.5 1329.17 4668.57 1313.81L4702.36 1316.11C4699.54 1331.22 4694.17 1344.4 4686.23 1355.66C4678.3 1366.67 4668.31 1375.25 4656.28 1381.39C4644.25 1387.54 4630.68 1390.61 4615.58 1390.61ZM4755.97 1443.6V1182.48H4785.92L4786.69 1228.56L4782.08 1226.26C4787.2 1210.38 4795.65 1198.35 4807.43 1190.16C4819.46 1181.97 4833.28 1177.87 4848.9 1177.87C4869.12 1177.87 4885.63 1182.86 4898.43 1192.85C4911.49 1202.83 4921.09 1215.89 4927.23 1232.02C4933.38 1248.14 4936.45 1265.55 4936.45 1284.24C4936.45 1302.93 4933.38 1320.34 4927.23 1336.46C4921.09 1352.59 4911.49 1365.65 4898.43 1375.63C4885.63 1385.62 4869.12 1390.61 4848.9 1390.61C4838.4 1390.61 4828.55 1388.82 4819.33 1385.23C4810.37 1381.65 4802.69 1376.66 4796.29 1370.26C4790.15 1363.86 4785.92 1356.3 4783.62 1347.6L4788.23 1342.22V1443.6H4755.97ZM4845.83 1359.89C4863.49 1359.89 4877.31 1353.23 4887.3 1339.92C4897.54 1326.61 4902.66 1308.05 4902.66 1284.24C4902.66 1260.43 4897.54 1241.87 4887.3 1228.56C4877.31 1215.25 4863.49 1208.59 4845.83 1208.59C4834.05 1208.59 4823.81 1211.41 4815.11 1217.04C4806.66 1222.67 4800 1231.12 4795.14 1242.38C4790.53 1253.65 4788.23 1267.6 4788.23 1284.24C4788.23 1300.88 4790.53 1314.83 4795.14 1326.1C4799.75 1337.36 4806.4 1345.81 4815.11 1351.44C4823.81 1357.07 4834.05 1359.89 4845.83 1359.89ZM4986.22 1443.6V1182.48H5016.17L5016.94 1228.56L5012.33 1226.26C5017.45 1210.38 5025.9 1198.35 5037.68 1190.16C5049.71 1181.97 5063.53 1177.87 5079.15 1177.87C5099.37 1177.87 5115.88 1182.86 5128.68 1192.85C5141.74 1202.83 5151.34 1215.89 5157.48 1232.02C5163.63 1248.14 5166.7 1265.55 5166.7 1284.24C5166.7 1302.93 5163.63 1320.34 5157.48 1336.46C5151.34 1352.59 5141.74 1365.65 5128.68 1375.63C5115.88 1385.62 5099.37 1390.61 5079.15 1390.61C5068.65 1390.61 5058.8 1388.82 5049.58 1385.23C5040.62 1381.65 5032.94 1376.66 5026.54 1370.26C5020.4 1363.86 5016.17 1356.3 5013.87 1347.6L5018.48 1342.22V1443.6H4986.22ZM5076.08 1359.89C5093.74 1359.89 5107.56 1353.23 5117.55 1339.92C5127.79 1326.61 5132.91 1308.05 5132.91 1284.24C5132.91 1260.43 5127.79 1241.87 5117.55 1228.56C5107.56 1215.25 5093.74 1208.59 5076.08 1208.59C5064.3 1208.59 5054.06 1211.41 5045.36 1217.04C5036.91 1222.67 5030.25 1231.12 5025.39 1242.38C5020.78 1253.65 5018.48 1267.6 5018.48 1284.24C5018.48 1300.88 5020.78 1314.83 5025.39 1326.1C5030 1337.36 5036.65 1345.81 5045.36 1351.44C5054.06 1357.07 5064.3 1359.89 5076.08 1359.89Z" fill="#F65E00"/>
</svg>
